<?xml version="1.0" standalone="no"?>
<!DOCTYPE svg PUBLIC "-//W3C//DTD SVG 20010904//EN"
 "http://www.w3.org/TR/2001/REC-SVG-20010904/DTD/svg10.dtd">
<svg version="1.0" xmlns="http://www.w3.org/2000/svg"
 width="700.000000pt" height="700.000000pt" viewBox="0 0 700.000000 700.000000"
 preserveAspectRatio="xMidYMid meet">
<metadata>
Created by potrace 1.11, written by Peter Selinger 2001-2013
</metadata>
<g transform="translate(0.000000,700.000000) scale(0.100000,-0.100000)"
fill="#000000" stroke="none">
<path d="M1104 6023 c-86 -29 -344 -321 -520 -588 -275 -418 -452 -866 -534
-1349 -22 -132 -24 -150 -37 -286 -15 -164 -8 -592 11 -710 3 -14 7 -47 11
-75 11 -92 16 -119 47 -260 113 -524 354 -1030 689 -1445 51 -63 102 -125 114
-136 181 -190 195 -200 274 -208 129 -12 245 103 234 233 -5 61 -24 96 -94
171 -33 36 -93 103 -132 150 -40 47 -74 87 -77 90 -8 7 -98 134 -147 205 -224
330 -423 845 -469 1215 -1 14 -5 39 -8 55 -5 29 -10 77 -21 200 -7 66 -7 353
-1 428 5 58 16 163 21 197 3 14 7 43 9 66 3 23 17 96 31 162 116 549 395 1075
785 1482 83 87 104 128 103 203 -3 146 -149 247 -289 200z"/>
<path d="M5743 6023 c-85 -29 -136 -105 -136 -203 -1 -78 11 -103 91 -188 301
-317 480 -598 663 -1037 90 -217 177 -610 194 -880 11 -164 6 -440 -10 -535
-2 -14 -7 -47 -10 -75 -7 -65 -13 -105 -19 -131 -2 -12 -7 -39 -11 -60 -19
-123 -87 -358 -151 -521 -149 -382 -361 -714 -653 -1022 -70 -75 -92 -116 -95
-180 -7 -151 144 -263 289 -214 44 14 111 75 215 192 36 41 70 79 76 85 71 74
282 381 371 541 47 84 163 320 163 331 0 3 8 24 19 47 20 44 75 198 110 307
29 90 76 293 100 430 38 220 46 319 46 585 0 195 -8 371 -20 430 -2 11 -7 40
-10 65 -3 25 -7 56 -10 70 -3 14 -7 39 -10 55 -82 480 -285 970 -573 1385
-155 222 -391 487 -462 518 -47 21 -116 23 -167 5z"/>
<path d="M2046 5103 c-52 -13 -137 -92 -243 -223 -15 -19 -31 -37 -34 -40 -3
-3 -38 -52 -77 -110 -247 -369 -370 -758 -376 -1190 -4 -223 9 -344 60 -558
39 -166 131 -407 191 -504 13 -21 23 -40 23 -43 0 -3 23 -42 52 -88 137 -219
316 -422 394 -445 155 -46 300 67 289 224 -4 56 -33 107 -101 179 -208 221
-370 525 -430 810 -33 155 -39 216 -38 405 1 132 6 204 22 292 61 329 214 634
444 883 77 82 97 119 102 181 13 148 -130 264 -278 227z"/>
<path d="M4805 5091 c-74 -34 -119 -94 -129 -173 -10 -70 16 -132 83 -203 31
-33 74 -82 96 -110 22 -27 42 -52 45 -55 11 -11 88 -128 115 -175 84 -145 159
-339 191 -488 33 -154 39 -221 38 -397 0 -209 -28 -389 -79 -523 -8 -20 -15
-38 -14 -40 0 -1 -4 -15 -10 -30 -6 -16 -11 -31 -11 -33 0 -3 -22 -51 -48
-107 -83 -174 -181 -319 -301 -447 -73 -77 -101 -127 -106 -186 -13 -153 135
-267 287 -223 59 18 155 113 286 285 105 139 204 313 276 486 38 92 101 292
110 352 4 21 8 41 10 45 19 30 42 292 40 451 -2 201 -19 336 -64 519 -89 355
-307 743 -554 986 -86 85 -173 107 -261 66z"/>
<path d="M3435 4373 c-355 -33 -651 -263 -762 -594 -88 -263 -52 -533 103
-765 97 -147 265 -279 424 -334 36 -13 69 -27 73 -30 5 -4 9 -560 9 -1235 0
-1347 -3 -1279 60 -1344 113 -115 295 -82 359 66 17 40 18 110 18 1274 0 677
4 1235 8 1239 4 4 31 15 60 24 118 39 251 125 344 222 334 354 322 899 -28
1236 -128 124 -308 211 -483 234 -48 6 -149 10 -185 7z"/>
</g>
</svg>
